<svg xmlns="http://www.w3.org/2000/svg" viewBox="0 0 512 512"><defs><style>.cls-1{isolation:isolate;}.cls-2,.cls-4{fill:#4d4d4d;}.cls-3{opacity:0.15;mix-blend-mode:multiply;}.cls-4{stroke:#4d4d4d;stroke-linejoin:round;stroke-width:6px;}</style></defs><title>icon-mask</title><g class="cls-1"><g id="Ebene_1" data-name="Ebene 1"><path class="cls-2" d="M256.56,326.76a24.92,24.92,0,0,0-20.16,9.53q-7.93,9.4-7.94,24.07,0,12.72,6.35,20.9a19.83,19.83,0,0,0,16.38,8.19q12.82,0,22.6-10.88a36.65,36.65,0,0,0,9.78-25.29,25.49,25.49,0,0,0-7.7-18.94A27,27,0,0,0,256.56,326.76Zm196-114.26H59.23a11.75,11.75,0,0,0-11.71,11.71V497.83a11.75,11.75,0,0,0,11.71,11.71h393.3a11.75,11.75,0,0,0,11.72-11.71V224.21A11.75,11.75,0,0,0,452.53,212.5ZM338.92,389.81Q324.39,410,304.83,410q-15.65,0-21.26-14.78-15,15.39-33.48,15.4-20.16,0-33.6-14.55-13.2-14.42-13.2-36.78,0-24.06,14.78-39.59,14.79-15.89,37.15-15.88,20.54,0,33.12,15.88l1.71-13.56H308.5l-7.7,64.15q-.49,3.56-.67,6.78c-.12,2.16-.19,4.18-.19,6q0,9.17,7.58,9.17,10.64,0,19.31-15,8.55-14.79,8.55-33.73,0-30.06-21-49.24-20.89-19.44-53.4-19.43-34,0-57.18,23.21t-23.1,57.19a87.5,87.5,0,0,0,8.31,36.9,75.51,75.51,0,0,0,23.59,28q20.28,14.65,50.83,14.66,28.59,0,59.87-14.54l1.84-1,6.35,17.6-1.47.73A151.17,151.17,0,0,1,263.53,453q-38.25,0-64-18.45a93.47,93.47,0,0,1-29.57-34.34,102.68,102.68,0,0,1-10.51-44.72q0-41.43,29.21-69.53t72.09-28.11q39.46,0,66.11,24.2,26.51,23.94,26.51,60Q353.34,369.9,338.92,389.81Z"/><g class="cls-3"><path class="cls-2" d="M333.33,288.55q20,22.18,20,53.48,0,27.87-14.42,47.78Q324.39,410,304.83,410q-15.65,0-21.26-14.78-15,15.39-33.48,15.4-20.16,0-33.6-14.55-13.2-14.42-13.2-36.78,0-24.06,14.78-39.59,14.79-15.89,37.15-15.88,20.54,0,33.12,15.88l1.71-13.56H308.5l-7.7,64.15q-.49,3.56-.67,6.78c-.12,2.16-.19,4.18-.19,6q0,9.17,7.58,9.17,10.64,0,19.31-15,8.55-14.79,8.55-33.73,0-30.06-21-49.24-20.89-19.44-53.4-19.43-34,0-57.18,23.21t-23.1,57.19a87.5,87.5,0,0,0,8.31,36.9,75.51,75.51,0,0,0,23.59,28q20.28,14.65,50.83,14.66,28.59,0,59.87-14.54l1.84-1,6.35,17.6-1.47.73A151.17,151.17,0,0,1,263.53,453q-38.25,0-64-18.45a94.37,94.37,0,0,1-11.76-9.87l.11.3,83.94,84.32H451.42a13.1,13.1,0,0,0,13.06-13.06V420.15ZM236.4,336.29q-7.93,9.4-7.94,24.07,0,12.72,6.35,20.9a19.83,19.83,0,0,0,16.38,8.19q12.82,0,22.6-10.88a36.65,36.65,0,0,0,9.78-25.29,25.49,25.49,0,0,0-7.7-18.94,27,27,0,0,0-19.31-7.58A24.92,24.92,0,0,0,236.4,336.29Z"/></g><path id="oben" class="cls-4" d="M256,56.46c76.75,0,139.18,62.44,139.18,139.19h50.76c0-104.74-85.21-190-189.94-190S66.06,90.91,66.06,195.65h50.76C116.82,118.9,179.25,56.46,256,56.46Z"/></g></g></svg>